<?xml version="1.0" encoding="UTF-8"?>
<svg width="15px" height="14px" viewBox="0 0 15 14" version="1.1" xmlns="http://www.w3.org/2000/svg" xmlns:xlink="http://www.w3.org/1999/xlink">
    <!-- Generator: Sketch 3.8.1 (29687) - http://www.bohemiancoding.com/sketch -->
    <title>Shape</title>
    <desc>Created with Sketch.</desc>
    <defs></defs>
    <g id="Page-1" stroke="none" stroke-width="1" fill="none" fill-rule="evenodd">
        <g id="Desktop" transform="translate(-447.000000, -2552.000000)" fill="#4886FF">
            <g id="Footer" transform="translate(0.000000, 2396.000000)">
                <g id="footer-menu" transform="translate(447.000000, 50.000000)">
                    <g id="cart-icon" transform="translate(0.000000, 106.000000)">
                        <g id="Group">
                            <path d="M14.9951211,2.30694171 L14.0573399,7.9336288 C14.0198287,8.12118504 13.8697837,8.25247441 13.6822275,8.25247441 L4.60450561,8.25247441 L4.79206184,9.19025559 L13.1195587,9.19025559 C13.607205,9.19025559 13.607205,9.94048053 13.1195587,9.94048053 L4.49197186,9.94048053 C4.30441563,9.94048053 4.15437064,9.80919117 4.11685939,9.64039056 C2.89774385,3.65734661 2.44760889,1.44418302 2.2975639,0.750224946 L0.365734661,0.750224946 C-0.121911554,0.750224946 -0.121911554,0 0.365734661,0 L2.6164095,0 C2.80396574,0 2.95401072,0.131289366 2.99152197,0.300089978 L3.31036757,1.87556236 C15.5202786,1.87556236 14.751298,1.81929549 14.9200986,2.00685173 C14.9763655,2.10062985 15.0138767,2.19440797 14.9951211,2.30694171 M5.42975305,11.065818 C4.86708434,11.065818 4.39819375,11.5347085 4.39819375,12.0973773 C4.39819375,12.660046 4.86708434,13.1289366 5.42975305,13.1289366 C5.99242176,13.1289366 6.46131235,12.660046 6.46131235,12.0973773 C6.46131235,11.5347085 5.99242176,11.065818 5.42975305,11.065818 M12.55689,11.065818 C11.9942213,11.065818 11.5253307,11.5347085 11.5253307,12.0973773 C11.5253307,12.660046 11.9942213,13.1289366 12.55689,13.1289366 C13.1195587,13.1289366 13.5884493,12.660046 13.5884493,12.0973773 C13.5884493,11.5347085 13.1195587,11.065818 12.55689,11.065818" id="Shape"></path>
                        </g>
                    </g>
                </g>
            </g>
        </g>
    </g>
</svg>