<?xml version="1.0" encoding="UTF-8"?>
<svg width="30px" height="30px" viewBox="0 0 30 30" version="1.1" xmlns="http://www.w3.org/2000/svg" xmlns:xlink="http://www.w3.org/1999/xlink">
    <!-- Generator: Sketch 3.8.1 (29687) - http://www.bohemiancoding.com/sketch -->
    <title>Shape</title>
    <desc>Created with Sketch.</desc>
    <defs></defs>
    <g id="Page-1" stroke="none" stroke-width="1" fill="none" fill-rule="evenodd">
        <g id="Desktop" transform="translate(-978.000000, -1469.000000)" fill="#000000">
            <g id="Всплывающее-окно" transform="translate(0.000000, -50.000000)">
                <g id="close-icon" transform="translate(978.000000, 1519.000000)">
                    <g id="Group">
                        <path d="M27.7297297,0.648648649 L15.8513514,12.527027 C15.3648649,13.0135135 14.5945946,13.0135135 14.1486486,12.527027 L2.27027027,0.648648649 C1.78378378,0.162162162 1.01351351,0.162162162 0.567567568,0.648648649 L0.567567568,0.648648649 C0.0810810811,1.13513514 0.0810810811,1.90540541 0.567567568,2.35135135 L12.4459459,14.2297297 C12.9324324,14.7162162 12.9324324,15.4864865 12.4459459,15.9324324 L0.527027027,27.8513514 C0.0405405405,28.3378378 0.0405405405,29.1081081 0.527027027,29.5540541 L0.527027027,29.5540541 C1.01351351,30.0405405 1.78378378,30.0405405 2.22972973,29.5540541 L14.1081081,17.6756757 C14.5945946,17.1891892 15.3648649,17.1891892 15.8108108,17.6756757 L27.7297297,29.5945946 C28.2162162,30.0810811 28.9864865,30.0810811 29.4324324,29.5945946 L29.4324324,29.5945946 C29.9189189,29.1081081 29.9189189,28.3378378 29.4324324,27.8918919 L17.5945946,15.972973 C17.1081081,15.4864865 17.1081081,14.7162162 17.5945946,14.2702703 L29.472973,2.39189189 C29.9594595,1.90540541 29.9594595,1.13513514 29.472973,0.689189189 L29.472973,0.689189189 C28.9864865,0.202702703 28.2162162,0.202702703 27.7297297,0.648648649 L27.7297297,0.648648649 Z" id="Shape"></path>
                    </g>
                </g>
            </g>
        </g>
    </g>
</svg>