<svg width="57px" height="34px" viewBox="0 0 57 34" version="1.1" xmlns="http://www.w3.org/2000/svg" xmlns:xlink="http://www.w3.org/1999/xlink">
    <!-- Generator: Sketch 3.8.1 (29687) - http://www.bohemiancoding.com/sketch -->
    <title>Shape</title>
    <desc>Created with Sketch.</desc>
    <defs></defs>
    <g id="Page-1" stroke="none" stroke-width="1" fill="none" fill-rule="evenodd">
        <g id="Desktop" transform="translate(-508.000000, -1345.000000)" fill="#FFFFFF">
            <g id="Наши-услуги" transform="translate(50.000000, 826.000000)">
                <g id="Ремонт-электроинструмент" transform="translate(0.000000, 328.000000)">
                    <g id="plug-icon" transform="translate(487.000000, 208.000000) rotate(-180.000000) translate(-487.000000, -208.000000) translate(458.000000, 190.000000)">
                        <g id="Group">
                            <g transform="translate(0.000000, 0.527083)" id="Shape">
                                <path d="M20.7272724,-11.3475978 C20.190261,-11.3423243 19.6777681,-11.1324986 19.3039715,-10.7648677 C18.9301749,-10.3972367 18.7261279,-9.90234155 18.7372899,-9.39043941 L18.7372899,-2.36064586 L14.0451207,-2.36064586 C13.9753442,-2.36411506 13.9054254,-2.36411506 13.8356489,-2.36064586 C12.8076086,-2.25791536 12.028663,-1.42891603 12.0341911,-0.443429441 L12.0341911,10.4207969 C12.0341911,17.4685484 18.048139,23.2022397 25.4403887,23.2022397 L26.7810085,23.2022397 L26.7810085,44.2916204 C26.7707522,44.9830375 27.1517743,45.626159 27.7781739,45.9747211 C28.4045736,46.3232833 29.1793027,46.3232833 29.8057024,45.9747211 C30.432102,45.626159 30.8131241,44.9830375 30.8028678,44.2916204 L30.8028678,23.2022397 L32.1434876,23.2022397 C39.5357373,23.2022397 45.5496852,17.4685484 45.5496852,10.4207969 L45.5496852,-0.443429441 C45.5495742,-1.50223498 44.6493153,-2.36054 43.5387556,-2.36064586 L38.8465864,-2.36064586 L38.8465864,-9.39043941 C38.8579007,-9.90926862 38.6481528,-10.4103138 38.2652483,-10.7791377 C37.8823439,-11.1479616 37.3589865,-11.3530632 36.8147096,-11.3475978 C36.2776982,-11.3423243 35.7652053,-11.1324986 35.3914087,-10.7648677 C35.0176121,-10.3972367 34.8135651,-9.90234155 34.8247271,-9.39043941 L34.8247271,-2.36064586 L22.7591492,-2.36064586 L22.7591492,-9.39043941 C22.7704636,-9.90926862 22.5607156,-10.4103138 22.1778111,-10.7791377 C21.7949067,-11.1479616 21.2715493,-11.3530632 20.7272724,-11.3475978 L20.7272724,-11.3475978 Z M16.0560504,1.47378698 L41.5278259,1.47378698 L41.5278259,10.4207969 C41.5278259,15.4106019 37.3771947,19.3678069 32.1434876,19.3678069 L25.4403887,19.3678069 C20.2066816,19.3678069 16.0560504,15.4106019 16.0560504,10.4207969 L16.0560504,1.47378698 L16.0560504,1.47378698 Z" transform="translate(28.791924, 17.444219) rotate(-270.000000) translate(-28.791924, -17.444219) "></path>
                            </g>
                        </g>
                    </g>
                </g>
            </g>
        </g>
    </g>
</svg>
