<?xml version="1.0" encoding="UTF-8"?>
<svg width="53px" height="70px" viewBox="0 0 53 70" version="1.1" xmlns="http://www.w3.org/2000/svg" xmlns:xlink="http://www.w3.org/1999/xlink">
    <!-- Generator: Sketch 3.8.1 (29687) - http://www.bohemiancoding.com/sketch -->
    <title>Gasoline</title>
    <desc>Created with Sketch.</desc>
    <defs></defs>
    <g id="Page-1" stroke="none" stroke-width="1" fill="none" fill-rule="evenodd">
        <g id="Desktop" transform="translate(-432.000000, -1064.000000)" fill="#FFFFFF">
            <g id="Наши-услуги" transform="translate(50.000000, 826.000000)">
                <g id="Ремонт-бензоинструмент" transform="translate(0.000000, 73.000000)">
                    <g id="Gasoline" transform="translate(409.028652, 199.707633) rotate(-42.000000) translate(-409.028652, -199.707633) translate(366.528652, 156.707633)">
                        <path d="M51.1409381,18.0986771 L45.8965389,10.0386771 L45.8965389,10.0386771 L45.7811621,9.89867706 L45.6972517,9.80867706 L45.5713861,9.70867706 L45.4664981,9.61867706 L45.2881886,9.55867706 L45.162323,9.48867706 L45.0259686,9.48867706 L44.8791254,9.48867706 L44.7532599,9.48867706 L44.5644615,9.48867706 L21.1639523,9.48867706 C18.5571908,9.48867706 16.4439931,11.5033957 16.4439931,13.9886771 L16.4439931,72.7686771 C16.4439931,75.2539584 18.5571908,77.2686771 21.1639523,77.2686771 L62.070266,77.2686771 C64.6770275,77.2686771 66.7902252,75.2539584 66.7902252,72.7686771 L66.7902252,22.6386771 C66.7899692,20.8061904 65.6242363,19.1568776 63.8428729,18.4686771 L65.2169055,15.5386771 L65.709879,15.7486771 C66.2276563,16.0088171 66.854098,15.9734391 67.3360422,15.6568403 C67.8179864,15.3402414 68.075768,14.7947554 68.0052104,14.2408277 C67.9346528,13.6869 67.5474193,13.2160948 67.0000012,13.0186771 L57.1300419,8.76867706 C56.6122647,8.50853699 55.985823,8.54391499 55.5038787,8.86051385 C55.0219345,9.17711271 54.7641529,9.72259876 54.8347105,10.2765264 C54.9052681,10.8304541 55.2925017,11.3012593 55.8399197,11.4986771 L56.3328933,11.7086771 L53.3016305,18.0986771 L51.1409381,18.0986771 Z M43.651936,12.3286771 L47.3859482,18.0986771 L37.7152761,18.0986771 C37.1719932,18.0988413 36.6676019,17.8299997 36.3831988,17.3886771 L33.0687385,12.3286771 L43.651936,12.3286771 Z M59.206824,12.9086771 L62.3534635,14.2686771 L60.5493902,18.0986771 L56.7524452,18.0986771 L59.206824,12.9086771 Z M54.2770888,21.0986771 L62.070266,21.0986771 C62.9391865,21.0986771 63.6435857,21.7702499 63.6435857,22.5986771 L63.6435857,72.7686771 C63.6435857,73.5971042 62.9391865,74.2686771 62.070266,74.2686771 L21.1639523,74.2686771 C20.2950318,74.2686771 19.5906326,73.5971042 19.5906326,72.7686771 L19.5906326,13.8686771 C19.5906326,13.0402499 20.2950318,12.3686771 21.1639523,12.3686771 L28.5061112,12.3686771 C29.0493941,12.3685128 29.5537854,12.6373544 29.8381886,13.0786771 L33.7505104,19.0286771 L33.7505104,19.0286771 C34.612927,20.3206278 36.1090224,21.1017376 37.7152761,21.0986771 L54.2770888,21.0986771 L54.2770888,21.0986771 Z" id="Shape" transform="translate(42.230354, 42.932184) rotate(42.000000) translate(-42.230354, -42.932184) "></path>
                        <path d="M24.7409413,28.8753171 C24.1210328,28.3245994 23.1550146,28.3408494 22.5558691,28.9120735 C21.9567236,29.4832977 21.9396793,30.4042976 22.517316,30.9953171 L29.5867661,37.7053171 L29.5867661,54.8453171 L22.6956256,61.4153171 C22.2747034,61.7892583 22.1014369,62.3524282 22.2437985,62.8838949 C22.3861601,63.4153617 22.8214444,63.8303609 23.3788892,63.9660882 C23.9363339,64.1018155 24.5270315,63.9366235 24.9192508,63.5353171 L32.2614097,56.5353171 L45.3724077,56.5353171 L52.7145665,63.5353171 C53.334475,64.0860348 54.3004932,64.0697849 54.8996387,63.4985607 C55.4987842,62.9273366 55.5158285,62.0063366 54.9381918,61.4153171 L47.4177234,54.2353171 L47.4177234,38.0453171 L54.7598822,31.0453171 C55.2168538,30.4666041 55.1747563,29.6592194 54.6598374,29.1265683 C54.1449185,28.5939172 53.304306,28.488194 52.6621225,28.8753171 L45.3199637,35.8753171 L32.1250553,35.8753171 L24.7409413,28.8753171 Z M32.6914504,38.8753171 L44.2710838,38.8753171 L44.2710838,53.4953171 L32.7334056,53.4953171 L32.6914504,38.8753171 Z" id="Shape" transform="translate(38.727754, 46.242753) rotate(42.000000) translate(-38.727754, -46.242753) "></path>
                    </g>
                </g>
            </g>
        </g>
    </g>
</svg>