<?xml version="1.0" encoding="UTF-8"?>
<svg width="25px" height="25px" viewBox="0 0 25 25" version="1.1" xmlns="http://www.w3.org/2000/svg" xmlns:xlink="http://www.w3.org/1999/xlink">
    <!-- Generator: Sketch 3.8.1 (29687) - http://www.bohemiancoding.com/sketch -->
    <title>Shape</title>
    <desc>Created with Sketch.</desc>
    <defs></defs>
    <g id="Page-1" stroke="none" stroke-width="1" fill="none" fill-rule="evenodd">
        <g id="Desktop" transform="translate(-1060.000000, -1424.000000)" fill="#FFFFFF">
            <g id="Наши-услуги" transform="translate(50.000000, 826.000000)">
                <g id="Продажа-запчасти" transform="translate(0.000000, 583.000000)">
                    <g id="cart-icon" transform="translate(1010.000000, 15.000000)">
                        <path d="M9.16666667,3.19744231e-14 C8.24619222,3.19744231e-14 7.5,0.754575843 7.5,1.68539326 C7.5,2.03882022 7.61128944,2.36247472 7.79513889,2.63342697 L5.99826389,6.46067416 L0.833333333,6.46067416 C0.383528889,6.46067416 0,6.94813483 0,7.30337079 L0,11.7977612 C4.36111111e-05,12.2389691 0.397012778,12.6404017 0.833333333,12.6404579 L1.25868056,12.6404579 L3.35069444,24.0344185 C3.42254972,24.4149242 3.78359667,24.7178736 4.16666667,24.7191096 L20.8333322,24.7191096 C21.2164044,24.7191096 21.5774489,24.4149242 21.6493044,24.0344185 L23.7413183,12.6404579 L24.1666656,12.6404579 C24.6029878,12.6404017 24.9999572,12.2389691 24.9999989,11.7977612 L24.9999989,7.30337079 C24.9999572,6.86214888 24.6029878,6.4607191 24.1666656,6.46067416 L19.001735,6.46067416 L17.20486,2.63342697 C17.38871,2.36247472 17.4999989,2.03882022 17.4999989,1.68539326 C17.4999989,0.754575843 16.7538072,3.19744231e-14 15.8333322,3.19744231e-14 C14.9128589,3.19744231e-14 14.1666667,0.754575843 14.1666667,1.68539326 C14.1666667,2.56964045 14.8379489,3.2916573 15.6944433,3.36200843 L17.1440961,6.46067416 L7.85590278,6.46067416 L9.30555556,3.36200843 C10.1620511,3.2916573 10.8333333,2.56964045 10.8333333,1.68539326 C10.8333333,0.754575843 10.0871411,3.19744231e-14 9.16666667,3.19744231e-14 L9.16666667,3.19744231e-14 Z M1.66666667,8.14606742 L23.3333322,8.14606742 L23.3333322,10.9550562 L1.66666667,10.9550562 L1.66666667,8.14606742 Z M2.95138889,12.6404579 L22.04861,12.6404579 L20.1475683,23.0337163 L4.85243056,23.0337163 L2.95138889,12.6404579 Z M4.16666667,15.7303455 C4.16666667,16.1275927 4.56302778,16.5730421 5,16.5730421 L7.77777778,16.5730421 C8.21803833,16.5792219 8.62297944,16.1755983 8.62297944,15.7303455 C8.62297944,15.2850927 8.21803833,14.8813567 7.77777778,14.8876489 L5,14.8876489 C4.51706528,14.8876489 4.16666667,15.3330983 4.16666667,15.7303455 L4.16666667,15.7303455 Z M10.2777778,15.7303455 C10.2777778,16.1275927 10.6741389,16.5730421 11.1111111,16.5730421 L13.8888889,16.5730421 C14.3291494,16.5792219 14.7340906,16.1755983 14.7340906,15.7303455 C14.7340906,15.2850927 14.3291494,14.8813567 13.8888889,14.8876489 L11.1111111,14.8876489 C10.6281764,14.8876489 10.2777778,15.3330983 10.2777778,15.7303455 L10.2777778,15.7303455 Z M16.3888878,15.7303455 C16.3888878,16.1275927 16.7852489,16.5730421 17.2222211,16.5730421 L19.9999989,16.5730421 C20.44026,16.5792219 20.8452017,16.1755983 20.8452017,15.7303455 C20.8452017,15.2850927 20.44026,14.8813567 19.9999989,14.8876489 L17.2222211,14.8876489 C16.7392878,14.8876489 16.3888878,15.3330983 16.3888878,15.7303455 L16.3888878,15.7303455 Z M6.66666667,19.6629298 C6.66666667,20.060177 7.06302778,20.5056264 7.5,20.5056264 L10.2777778,20.5056264 C10.7180383,20.5118062 11.1229794,20.1081826 11.1229794,19.6629298 C11.1229794,19.217677 10.7180383,18.813941 10.2777778,18.8202331 L7.5,18.8202331 C7.01706528,18.8202331 6.66666667,19.2656826 6.66666667,19.6629298 L6.66666667,19.6629298 Z M13.8888889,19.6629298 C13.8888889,20.060177 14.2852503,20.5056264 14.7222222,20.5056264 L17.4999989,20.5056264 C17.94026,20.5118062 18.3452017,20.1081826 18.3452017,19.6629298 C18.3452017,19.217677 17.94026,18.813941 17.4999989,18.8202331 L14.7222222,18.8202331 C14.2392889,18.8202331 13.8888889,19.2656826 13.8888889,19.6629298 L13.8888889,19.6629298 Z" id="Shape"></path>
                    </g>
                </g>
            </g>
        </g>
    </g>
</svg>