<svg width="20px" height="20px" viewBox="0 0 20 20" version="1.1" xmlns="http://www.w3.org/2000/svg" xmlns:xlink="http://www.w3.org/1999/xlink">
    <!-- Generator: Sketch 3.8.1 (29687) - http://www.bohemiancoding.com/sketch -->
    <title>Shape</title>
    <desc>Created with Sketch.</desc>
    <defs>
        <path d="M19.6016645,17.6785704 L15.588531,13.665437 C18.0341002,10.2976405 17.7396541,5.55894755 14.7031928,2.52248624 C13.0214057,0.840921338 10.8171712,2.7777932e-05 8.61293674,2.7777932e-05 C6.40870227,2.7777932e-05 4.2044678,0.840921338 2.52268068,2.52270846 C-0.840893561,5.8862827 -0.840893561,11.3396463 2.52268068,14.7032206 C4.2044678,16.3850077 6.40870227,17.2259013 8.61293674,17.2259013 C10.3882799,17.2259013 12.1629565,16.6794538 13.6654093,15.5885588 L17.6785427,19.6016922 C17.9438775,19.8672493 18.2921016,20.0001389 18.6401036,20.0001389 C18.9881055,20.0001389 19.3363296,19.8672493 19.6016645,19.6016922 C20.1327785,19.0708004 20.1327785,18.2096845 19.6016645,17.6785704 L19.6016645,17.6785704 Z M3.86891038,13.3569909 C1.25311807,10.7411986 1.25311807,6.48473047 3.86891038,3.86893816 C5.13602853,2.60182001 6.82092678,1.90381613 8.61293674,1.90381613 C10.4049467,1.90381613 12.0898449,2.60159779 13.3569631,3.86893816 C15.9727554,6.48473047 15.9727554,10.7411986 13.3569631,13.3569909 C12.0898449,14.624109 10.4049467,15.3221129 8.61293674,15.3221129 C6.82092678,15.3221129 5.13625076,14.624109 3.86891038,13.3569909 L3.86891038,13.3569909 Z" id="path-1"></path>
        <mask id="mask-2" maskContentUnits="userSpaceOnUse" maskUnits="objectBoundingBox" x="0" y="0" width="20" height="20.0001111" fill="white">
            <use xlink:href="#path-1"></use>
        </mask>
    </defs>
    <g id="Page-1" stroke="none" stroke-width="1" fill="none" fill-rule="evenodd">
        <g id="Desktop" transform="translate(-770.000000, -1317.000000)" stroke-width="6" stroke="#FFFFFF">
            <g id="Наши-услуги" transform="translate(50.000000, 826.000000)">
                <g id="Продажа-инструмента" transform="translate(535.000000, 72.000000)">
                    <g id="btn" transform="translate(138.000000, 404.000000)">
                        <g id="search-icon" transform="translate(47.000000, 15.000000)">
                            <g id="Group">
                                <use id="Shape" mask="url(#mask-2)" xlink:href="#path-1"></use>
                            </g>
                        </g>
                    </g>
                </g>
            </g>
        </g>
    </g>
</svg>
