<?xml version="1.0" encoding="UTF-8"?>
<svg width="35px" height="35px" viewBox="0 0 35 35" version="1.1" xmlns="http://www.w3.org/2000/svg" xmlns:xlink="http://www.w3.org/1999/xlink">
    <!-- Generator: Sketch 3.8.1 (29687) - http://www.bohemiancoding.com/sketch -->
    <title>spare</title>
    <desc>Created with Sketch.</desc>
    <defs></defs>
    <g id="Page-1" stroke="none" stroke-width="1" fill="none" fill-rule="evenodd">
        <g id="Desktop" transform="translate(-1050.000000, -1594.000000)" fill="#FFFFFF">
            <g id="spare" transform="translate(1050.000000, 1594.000000)">
                <path d="M20.7968557,18.385 C20.6290722,18.1160714 20.2469588,17.99 19.9492784,18.1039286 L18.6319072,18.6046429 C18.333866,18.7178571 17.9145876,18.6203571 17.6970103,18.3875 L16.7061856,17.4614286 C16.4579381,17.2621429 16.3345361,16.8528571 16.4319588,16.5514286 L16.8606186,15.2210714 C16.9573196,14.9203571 16.8014433,14.5614286 16.5149485,14.4232143 L13.853866,13.4210714 C13.5464433,13.335 13.1892268,13.5014286 13.0589691,13.79 L12.4859794,15.0664286 C12.3564433,15.3546429 11.9898454,15.5796429 11.6701546,15.565 L10.3073196,15.6060714 C9.99051546,15.6371429 9.61020619,15.4335714 9.46335052,15.1528571 L8.8156701,13.9117857 C8.66989691,13.6307143 8.2993299,13.4742857 7.99335052,13.5635714 C7.99335052,13.5635714 7.2742268,13.7739286 6.6514433,14.0507143 C6.02757732,14.3275 5.39108247,14.7196429 5.39108247,14.7196429 C5.11974227,14.8867857 4.99201031,15.2642857 5.1056701,15.5592857 L5.61298969,16.8635714 C5.72773196,17.1585714 5.6292268,17.5746429 5.3943299,17.7885714 L4.45762887,18.7682143 C4.25664948,19.0139286 3.84206186,19.1364286 3.53860825,19.0403571 L2.19453608,18.6157143 C1.89072165,18.52 1.52809278,18.6735714 1.38809278,18.9585714 L0.375618557,21.5925 C0.289381443,21.8964286 0.457164948,22.25 0.748350515,22.3785714 L2.03793814,22.9453571 C2.32948454,23.0735714 2.55680412,23.4375 2.54201031,23.7528571 L2.58314433,25.1014286 C2.61525773,25.4157143 2.4092268,25.7921429 2.12561856,25.9371429 L0.871391753,26.5785714 C0.58814433,26.7228571 0.430103093,27.09 0.519948454,27.3932143 C0.519948454,27.3932143 0.732835052,28.1039286 1.01247423,28.7203571 C1.29175258,29.3378571 1.68865979,29.9685714 1.68865979,29.9685714 C1.85716495,30.2367857 2.2385567,30.3635714 2.53659794,30.2496429 L3.85396907,29.7489286 C4.15237113,29.635 4.57309278,29.7332143 4.78886598,29.9653571 L5.78005155,30.8921429 C6.02793814,31.0903571 6.15097938,31.5003571 6.05427835,31.8014286 L5.62561856,33.1317857 C5.52819588,33.4332143 5.68407216,33.7925 5.97128866,33.9303571 L8.63237113,34.9332143 C8.94015464,35.0185714 9.29737113,34.8517857 9.42690722,34.5635714 L9.99953608,33.2875 C10.129433,32.9985714 10.4967526,32.7735714 10.8157216,32.7882143 L12.1781959,32.7478571 C12.4960825,32.7157143 12.8756701,32.9203571 13.0221649,33.2014286 L13.6691237,34.4435714 C13.8159794,34.7239286 14.1865464,34.8810714 14.4925258,34.7910714 C14.4925258,34.7910714 15.210567,34.58 15.834433,34.3035714 C16.4579381,34.0260714 17.0947938,33.6346429 17.0947938,33.6346429 C17.3657732,33.4675 17.493866,33.0903571 17.3794845,32.7942857 L16.8732474,31.4917857 C16.7581443,31.1960714 16.8570103,30.78 17.0915464,30.5660714 L18.0282474,29.5846429 C18.2306701,29.34 18.6423711,29.2175 18.9469072,29.3135714 L20.2909794,29.7382143 C20.5955155,29.8342857 20.9585052,29.6803571 21.098866,29.3964286 L22.1102577,26.7621429 C22.1968557,26.4582143 22.029433,26.1039286 21.7371649,25.9753571 L20.4486598,25.4092857 C20.1567526,25.2796429 19.9297938,24.9164286 19.943866,24.6003571 L19.9034536,23.2528571 C19.871701,22.9375 20.077732,22.5610714 20.361701,22.4171429 L21.615567,21.7760714 C21.8998969,21.6317857 22.0579381,21.2635714 21.967732,20.9617857 C21.967732,20.9617857 21.7548454,20.2496429 21.4748454,19.6325 C21.1934021,19.0146429 20.7968557,18.385 20.7968557,18.385 L20.7968557,18.385 Z M12.4087629,26.7482143 C10.9734021,27.3860714 9.28798969,26.7510714 8.64427835,25.3307143 C7.99984536,23.9103571 8.64139175,22.2417857 10.0767526,21.6046429 C11.5113918,20.9678571 13.1964433,21.6017857 13.8405155,23.0228571 C14.4849485,24.4421429 13.8437629,26.1107143 12.4087629,26.7482143 L12.4087629,26.7482143 Z" id="Shape"></path>
                <path d="M34.8228351,8.57714286 C34.783866,8.305 34.5262371,8.07107143 34.2487629,8.0575 L33.0234021,7.9975 C32.7452062,7.98392857 32.4453608,7.75964286 32.3565979,7.49928571 L31.8987113,6.4175 C31.7720619,6.1725 31.8193299,5.805 32.0033505,5.59928571 L32.817732,4.69142857 C33.0021134,4.48571429 33.0060825,4.14642857 32.8263918,3.93642857 L31.0673711,2.21321429 C30.8537629,2.03785714 30.5102577,2.04571429 30.3053093,2.23 L29.3956701,3.04464286 C29.1907216,3.22892857 28.8187113,3.27928571 28.5704639,3.15678571 L27.4731959,2.71464286 C27.209433,2.62928571 26.9806701,2.335 26.9640722,2.06 L26.8904639,0.848571429 C26.8735052,0.573928571 26.6353608,0.320714286 26.3596907,0.285714286 C26.3596907,0.285714286 25.7134536,0.202142857 25.1191753,0.205357143 C24.5252577,0.208214286 23.8797423,0.298571429 23.8797423,0.298571429 C23.6062371,0.336071429 23.3695361,0.592142857 23.3551031,0.866428571 L23.2952062,2.07857143 C23.2814948,2.35392857 23.0545361,2.65 22.7922165,2.73821429 L21.6989175,3.19178571 C21.4510309,3.31714286 21.0793814,3.27 20.8719072,3.0875 L19.9550515,2.28214286 C19.7479381,2.09964286 19.4040722,2.09642857 19.1919072,2.27321429 L17.4509278,4.01392857 C17.2748454,4.22535714 17.2820619,4.56607143 17.4678866,4.76928571 L18.2902062,5.66857143 C18.4774742,5.8725 18.5283505,6.24071429 18.4045876,6.48571429 L17.9575258,7.57285714 C17.8716495,7.83321429 17.5732474,8.06071429 17.2968557,8.07714286 L16.0718557,8.14928571 C15.7954639,8.16607143 15.5392784,8.4025 15.5039175,8.67464286 C15.5039175,8.67464286 15.4194845,9.31464286 15.422732,9.90214286 C15.4256186,10.49 15.5165464,11.1289286 15.5165464,11.1289286 C15.5547938,11.4007143 15.8127835,11.6346429 16.0902577,11.6482143 L17.3156186,11.7082143 C17.592732,11.7217857 17.8925773,11.9460714 17.9824227,12.2060714 L18.4392268,13.2878571 C18.5655155,13.5321429 18.5186082,13.9007143 18.3345876,14.1060714 L17.5202062,15.0139286 C17.3361856,15.2196429 17.3325773,15.5592857 17.5111856,15.7692857 L19.270567,17.4921429 C19.4845361,17.6675 19.8276804,17.66 20.0329897,17.4757143 L20.9426289,16.6614286 C21.1475773,16.4767857 21.5192268,16.4264286 21.7674742,16.5485714 L22.8651031,16.9907143 C23.1292268,17.0764286 23.3579897,17.3707143 23.3753093,17.6453571 L23.4485567,18.8567857 C23.4651546,19.1317857 23.7036598,19.3842857 23.9789691,19.42 C23.9789691,19.42 24.6248454,19.5025 25.2191237,19.5 C25.8130412,19.4975 26.4585567,19.4071429 26.4585567,19.4071429 C26.7335052,19.3696429 26.9702062,19.1135714 26.9828351,18.8382143 L27.0441753,17.6267857 C27.0575258,17.3521429 27.2841237,17.0553571 27.5471649,16.9671429 L28.6401031,16.5139286 C28.8869072,16.3892857 29.2596392,16.4353571 29.4667526,16.6178571 L30.3846907,17.4232143 C30.5918041,17.6057143 30.9349485,17.6096429 31.1471134,17.4321429 L32.887732,15.6910714 C33.0648969,15.4796429 33.0576804,15.1403571 32.8707732,14.9367857 L32.0484536,14.0367857 C31.8615464,13.8328571 31.8110309,13.465 31.934433,13.2196429 L32.3807732,12.1328571 C32.4670103,11.8721429 32.7650515,11.645 33.0410825,11.6289286 L34.2668041,11.5557143 C34.5435567,11.5396429 34.7993814,11.3028571 34.8351031,11.0303571 C34.8351031,11.0303571 34.9184536,10.3910714 34.9159278,9.80285714 C34.9137629,9.21571429 34.8228351,8.57714286 34.8228351,8.57714286 L34.8228351,8.57714286 Z M25.1837629,12.6471429 C23.6246392,12.6553571 22.3538144,11.4103571 22.3458763,9.86678571 C22.3379381,8.32357143 23.5954124,7.065 25.1548969,7.0575 C26.7147423,7.04964286 27.9852062,8.29464286 27.9931443,9.83821429 C28.0010825,11.3821429 26.7432474,12.64 25.1837629,12.6471429 L25.1837629,12.6471429 Z" id="Shape"></path>
            </g>
        </g>
    </g>
</svg>